<svg xmlns="http://www.w3.org/2000/svg" width="1024" height="1024" viewBox="0 0 1024 1024" version="1.1">
	<path d="M 177.173 99.484 C 165.573 103.104, 157 114.642, 157 126.636 C 157 130.971, 160.466 133.534, 164.337 132.062 C 166.915 131.082, 167.279 130.263, 168.492 122.729 C 169.215 118.232, 174.146 112.255, 178.702 110.351 C 183.508 108.343, 193.353 108.628, 197.790 110.903 C 204.794 114.495, 209 121.093, 209 128.490 C 209 135.634, 206.129 139.956, 196.158 147.821 C 185.807 155.986, 183.051 160.494, 182.241 170.583 C 181.817 175.872, 182.047 177.394, 183.517 179.018 C 187.652 183.588, 192.998 179.774, 193.004 172.250 C 193.009 165.891, 195.301 162.420, 204.456 154.906 C 208.606 151.500, 213.310 146.738, 214.909 144.324 C 223.015 132.085, 220.768 116.472, 209.404 106.086 C 206.371 103.314, 202.038 100.519, 199.357 99.606 C 193.704 97.680, 183.141 97.622, 177.173 99.484 M 813.893 109.374 C 784.673 119.689, 772.867 154.660, 789.857 180.572 C 791.995 183.832, 795.615 188.292, 797.902 190.483 C 802.760 195.135, 805 201.369, 805 210.239 C 805 222.255, 809.405 230.510, 818.357 235.272 C 824.235 238.399, 837.713 238.432, 843.500 235.335 C 851.996 230.788, 854.489 225.838, 855.502 211.500 C 856.355 199.419, 858.280 194.512, 864.920 187.491 C 889.739 161.248, 877.458 117.663, 842.632 108.390 C 834.401 106.199, 821.653 106.635, 813.893 109.374 M 317.111 126.427 C 308.787 134.848, 304.935 139.443, 305.167 140.677 C 305.354 141.680, 311.309 147.136, 318.400 152.802 C 328.457 160.839, 331.865 163.038, 333.896 162.802 C 335.851 162.575, 336.575 161.858, 336.800 159.923 C 337.055 157.726, 335.843 156.397, 328.592 150.923 C 323.913 147.390, 320.066 144.206, 320.042 143.846 C 319.951 142.431, 341.457 141.811, 353.488 142.882 C 380.407 145.280, 401.499 152.128, 419.423 164.290 C 427.454 169.740, 440.294 182.159, 445.642 189.650 C 450.111 195.909, 459 212.449, 459 214.505 C 459 215.127, 455.240 217.098, 450.644 218.886 C 418.493 231.392, 394.220 261.212, 387.469 296.498 C 381.541 327.481, 387.018 357.146, 405.900 396.326 C 409.565 403.930, 412.211 410.369, 411.781 410.635 C 411.351 410.901, 403.912 411.375, 395.250 411.690 C 362.730 412.869, 342.859 407.367, 310.710 388.284 C 280.943 370.614, 256.789 363.216, 225.750 362.260 L 209 361.744 209 365.872 L 209 370 220.750 370.018 C 249.085 370.062, 275.347 377.241, 300.050 391.694 C 326.182 406.983, 341.704 413.660, 360.500 417.697 C 369.321 419.591, 398.115 420.163, 410.132 418.683 L 416.764 417.866 421.126 426.683 L 425.488 435.500 425.806 453.792 L 426.125 472.083 420.904 477.792 C 413.916 485.432, 402.857 499.810, 398.343 507.123 C 394.477 513.387, 393.857 513.805, 380.833 518.909 C 376.616 520.561, 366.491 524.926, 358.333 528.608 C 350.175 532.291, 342.729 535.264, 341.786 535.217 C 340.843 535.169, 336.036 533.515, 331.102 531.541 C 315.789 525.414, 308.187 523.849, 291 523.286 C 274.440 522.744, 264.126 523.956, 250.859 528.003 L 244.217 530.029 245.021 533.594 C 245.463 535.554, 246.019 537.353, 246.257 537.590 C 246.494 537.827, 248.671 537.308, 251.094 536.436 C 271.014 529.268, 299.740 529.269, 320.815 536.437 C 332.709 540.482, 332.722 540.117, 320.440 546.303 C 288.804 562.237, 273.542 580.469, 261.940 616.186 C 253.238 642.973, 245.832 680.819, 240.547 725.500 C 239.701 732.650, 238.785 740.135, 238.511 742.133 C 238.204 744.379, 238.489 746.149, 239.257 746.769 C 239.941 747.320, 248.600 748.071, 258.500 748.438 C 268.400 748.805, 290.900 749.736, 308.500 750.507 C 326.100 751.278, 348.436 752.205, 358.135 752.567 L 375.770 753.226 377.035 749.363 C 383.960 728.216, 403.699 701.790, 424.275 686.119 C 446.679 669.058, 466.099 661.741, 496.629 658.861 C 520.360 656.622, 546.459 661.234, 567.611 671.406 C 582.738 678.679, 591.452 684.634, 602.765 695.426 C 618.942 710.860, 629.278 725.487, 636.511 743.184 L 639.910 751.500 645.017 751.804 C 647.826 751.972, 667.587 751.184, 688.931 750.054 C 710.275 748.924, 729.511 748, 731.678 748 C 733.845 748, 736.434 747.403, 737.431 746.674 C 739.173 745.401, 739.119 744.480, 736.076 723.553 C 734.334 711.566, 733.041 701.649, 733.204 701.515 C 734.231 700.671, 753.276 699.006, 761.568 699.035 C 785.331 699.118, 801.782 705.170, 815.770 718.973 C 833.005 735.982, 840.673 756.715, 839.764 783.850 C 838.989 806.985, 833.522 819.387, 816.500 836.630 C 795.726 857.673, 766.635 871.082, 727.500 877.653 C 718.829 879.109, 711.419 879.487, 692.500 879.439 C 666.845 879.374, 658.489 878.445, 638.040 873.380 L 627.580 870.789 625.295 873.644 C 624.038 875.215, 623.008 876.788, 623.005 877.140 C 622.999 877.950, 635.619 881.371, 648 883.915 C 673.008 889.053, 710.038 889.333, 735.276 884.576 C 760.919 879.742, 787.895 869.081, 805.934 856.652 C 821.712 845.781, 835.679 829.329, 841.864 814.329 C 846.741 802.504, 847.500 797.811, 847.500 779.500 C 847.500 764.804, 847.193 761.441, 845.235 754.684 C 836.935 726.042, 819.416 705.466, 795.745 696.556 C 783.682 692.015, 773.302 690.687, 755.500 691.405 C 746.700 691.761, 737.648 692.306, 735.385 692.618 L 731.269 693.184 729.536 683.342 C 720.898 634.298, 713.355 606.973, 703.028 587.311 L 697.112 576.047 700.806 575.068 C 702.838 574.530, 706.625 573.620, 709.221 573.047 C 720.608 570.533, 736.850 562.846, 748.823 554.305 C 774.133 536.250, 790.694 508.881, 793.634 480.250 L 794.276 474 808.715 474 L 823.154 474 826.077 471.077 L 829 468.154 829 448.031 C 829 428, 828.989 427.898, 826.545 425.455 C 824.164 423.073, 823.655 423, 809.545 423 L 795 423 795 411 L 795 399 861.500 399 L 928 399 928 411 L 928 423 913 423 C 899.398 423, 897.816 423.184, 896.025 424.975 C 893.074 427.926, 892.842 429.997, 893.185 450.414 L 893.500 469.174 896.306 471.587 L 899.112 474 931.421 474 C 962.593 474, 963.823 473.927, 966.365 471.927 L 969 469.855 969 448.602 C 969 421.331, 970.227 423, 950.186 423 L 936 423 936 408.200 C 936 398.022, 935.625 393.025, 934.800 392.200 C 933.914 391.314, 924.767 391, 899.851 391 L 866.103 391 865.801 376.498 L 865.500 361.997 886.300 361.998 C 907.957 362, 911.888 361.341, 913.379 357.455 C 913.720 356.565, 914 346.628, 914 335.373 C 914 314.979, 913.992 314.901, 911.545 312.455 L 909.091 310 887.045 310 L 865 310 865 284.893 C 865 262.336, 864.838 259.848, 863.407 260.397 C 862.531 260.733, 860.731 261.280, 859.407 261.613 L 857 262.217 857 286.108 L 857 310 835.455 310 C 806.711 310, 809 307.750, 809 336 C 809 357.059, 809.004 357.095, 811.455 359.545 L 813.909 362 836.205 361.998 L 858.500 361.997 858.199 376.498 L 857.897 391 823.649 391 C 798.344 391, 789.087 391.313, 788.200 392.200 C 787.375 393.025, 787 398.022, 787 408.200 L 787 423 772.073 423 L 757.145 423 755.073 425.635 C 753.129 428.106, 753.002 429.523, 753.032 448.385 C 753.054 462.619, 753.420 468.964, 754.282 470.087 C 756.795 473.361, 759.843 474, 772.934 474 L 786 474 786 477.042 C 786 482.320, 782.953 495.214, 779.866 503 C 771.379 524.407, 754.663 542.749, 732.646 554.812 C 721.529 560.903, 712.126 564.320, 699.246 566.952 L 689.504 568.942 684.502 564.135 C 671.095 551.253, 664.459 548.001, 608.951 527.107 C 595.449 522.025, 583.945 517.559, 583.386 517.183 C 582.826 516.808, 578.147 511.325, 572.986 505 C 567.826 498.675, 562.908 492.975, 562.057 492.334 C 560.842 491.419, 562.556 491.152, 570.047 491.092 C 580.408 491.009, 588.099 489.225, 593.909 485.557 C 603.060 479.781, 608.670 469.478, 609.730 456.501 C 610.045 452.651, 611.104 447.989, 612.083 446.142 C 613.063 444.295, 614.183 439.803, 614.573 436.160 C 615.018 432.009, 616.032 428.523, 617.291 426.820 C 618.885 424.664, 619.399 422.037, 619.782 414.084 L 620.264 404.065 625.382 402.563 C 635.789 399.510, 641.853 392.641, 640.655 385.262 C 639.915 380.699, 637.439 376.072, 627.672 361 C 623.217 354.125, 618.492 345.831, 617.173 342.568 C 615.041 337.297, 614.852 335.738, 615.477 328.569 C 616.596 315.746, 616.177 306.427, 614.088 297.655 C 611.775 287.943, 607.262 275.444, 603.073 267.145 L 600.038 261.133 601.997 256.816 C 606.199 247.557, 603.272 238.143, 593.347 229 C 582.818 219.301, 565.937 212.683, 543.400 209.422 C 527.373 207.103, 491.955 207.903, 477.500 210.912 C 465.541 213.401, 466 213.379, 466 211.478 C 466 208.746, 460.245 197.182, 454.493 188.358 C 440.878 167.470, 419.118 151.329, 392.660 142.490 C 375.325 136.699, 361.363 134.625, 339.272 134.558 L 320.044 134.500 327.522 126.978 C 331.635 122.841, 335 118.768, 335 117.928 C 335 115.939, 333.024 114, 330.999 114 C 330.118 114, 323.869 119.592, 317.111 126.427 M 820.500 116.386 C 809.066 119.166, 799.066 127.246, 794.375 137.492 C 787.021 153.556, 789.938 169.378, 802.787 183.113 C 809.064 189.824, 811.486 194.376, 812.765 201.873 C 813.480 206.058, 813.664 206.246, 817.255 206.465 L 821 206.692 821 202.418 C 821 195.199, 818.950 182.918, 816.428 175.020 C 813.328 165.315, 813.345 163.256, 816.537 161.801 C 818.561 160.879, 819.353 160.934, 820.456 162.073 C 823.942 165.673, 829 187.905, 829 199.631 C 829 208.834, 830.607 207.458, 831.409 197.569 C 832.121 188.800, 835.889 171.594, 838.431 165.511 C 839.870 162.067, 841.258 161.394, 844.418 162.607 C 846.413 163.372, 846.492 168.353, 844.595 173.730 C 842.762 178.925, 840.266 191.742, 839.430 200.250 L 838.767 207 842.772 207 C 846.616 207, 846.804 206.849, 847.438 203.250 C 848.970 194.545, 851.224 189.955, 857.202 183.358 C 860.532 179.684, 864.661 173.713, 866.378 170.089 C 869.168 164.200, 869.496 162.544, 869.465 154.500 C 869.434 146.548, 869.066 144.722, 866.301 138.820 C 860.738 126.948, 852.188 119.847, 839.465 116.533 C 832.586 114.741, 827.429 114.701, 820.500 116.386 M 720 177.015 C 692.555 183.857, 670.976 201.219, 658.076 226.835 C 653.186 236.544, 649.508 248.919, 644.960 270.954 C 641.645 287.021, 641.055 291.361, 642.027 292.533 C 643.564 294.384, 646.405 294.421, 647.909 292.610 C 648.543 291.846, 650.878 282.283, 653.097 271.360 C 655.316 260.437, 658.231 248.218, 659.574 244.207 C 670.549 211.418, 695.370 189.330, 727.313 183.925 C 732.615 183.028, 734.002 182.447, 733.563 181.305 C 733.254 180.497, 733 178.748, 733 177.418 C 733 174.413, 730.719 174.342, 720 177.015 M 184.357 194.991 C 178.941 197.178, 177.450 204.036, 181.452 208.354 C 186.442 213.738, 195 210.310, 195 202.927 C 195 199.172, 192.412 195, 190.082 195 C 189.577 195, 188.564 194.803, 187.832 194.563 C 187.099 194.322, 185.536 194.515, 184.357 194.991 M 814.412 217.651 C 816.149 224.946, 822.206 228.996, 831.382 228.998 C 840.280 229.001, 845.043 225.313, 846.205 217.522 C 846.487 215.633, 845.768 215.528, 830.117 215.173 L 813.734 214.803 814.412 217.651 M 585.253 265.976 C 580.419 270.290, 571.168 274.037, 558.846 276.670 C 552.057 278.121, 545.586 278.459, 524.164 278.477 L 497.827 278.500 495.914 280.861 C 493.350 284.024, 493.490 288.076, 496.659 302.348 C 499.162 313.621, 499.247 314.847, 498.124 323.282 C 496.786 333.330, 492.857 344.430, 487.342 353.739 C 481.914 362.900, 479.385 363.123, 474.500 354.872 C 463.979 337.104, 443.054 333.384, 433.993 347.672 C 429.607 354.589, 428.470 361.615, 430.375 370.048 C 432.408 379.054, 435.751 385.472, 441.926 392.229 C 448.601 399.532, 455.118 402.419, 463.464 401.770 C 470.865 401.194, 472 401.548, 472 404.428 C 472 411.483, 460.538 412.948, 447.750 407.528 C 446.648 407.061, 446 407.227, 446 407.976 C 446 408.630, 443.415 415.540, 440.255 423.333 L 434.511 437.500 434.505 470.015 L 434.500 502.531 437.728 509.093 C 441.756 517.282, 454.575 529.979, 474 545.018 C 491.185 558.323, 506.593 571.538, 511.208 576.930 L 514.809 581.137 517.748 576.819 C 522.695 569.548, 539.323 541.178, 545.960 528.684 C 552.067 517.187, 552.220 516.714, 551.629 511.184 C 551.294 508.058, 550.732 501.865, 550.380 497.423 L 549.740 489.346 542.337 488.102 C 535.285 486.917, 524.616 483.690, 518.805 480.984 C 515.834 479.601, 514.766 477.772, 515.624 475.538 C 516.631 472.914, 519.646 472.895, 527.298 475.464 C 536.915 478.692, 545.778 480.506, 559.239 481.999 C 587.035 485.083, 601 475.677, 601 453.871 C 601 449.642, 601.666 446.853, 603.500 443.404 C 604.875 440.818, 606 437.476, 606 435.976 C 606 433.268, 605.947 433.248, 597.750 432.767 C 589.308 432.272, 578.002 429.052, 574.750 426.216 C 572.605 424.346, 572.495 421.664, 574.496 420.003 C 575.709 418.996, 577.627 419.293, 584.633 421.572 C 590.805 423.580, 595.400 424.400, 600.714 424.442 C 610.677 424.520, 611 424.042, 611 409.258 L 611 397.898 614.250 396.541 C 616.038 395.794, 619.198 394.865, 621.274 394.476 C 626.203 393.552, 631.419 389.991, 631.811 387.283 C 632.208 384.535, 630.486 381.226, 620.994 366.500 C 606.885 344.611, 607.519 346.590, 607.382 324 C 607.281 307.217, 606.957 303.385, 605.059 296.500 C 601.535 283.719, 594.281 266.401, 591.380 263.843 C 589.604 262.278, 589.264 262.396, 585.253 265.976 M 91.667 301.667 C 91.300 302.033, 91.007 302.821, 91.015 303.417 C 91.025 304.093, 91.318 304.048, 91.796 303.296 C 92.254 302.575, 95.760 301.954, 100.531 301.747 L 108.500 301.402 100.417 301.201 C 95.971 301.091, 92.033 301.300, 91.667 301.667 M 111.762 301.707 C 113.006 301.946, 114.806 301.937, 115.762 301.687 C 116.718 301.437, 115.700 301.241, 113.500 301.252 C 111.300 301.263, 110.518 301.468, 111.762 301.707 M 118.750 301.662 C 119.438 301.940, 120.563 301.940, 121.250 301.662 C 121.938 301.385, 121.375 301.158, 120 301.158 C 118.625 301.158, 118.063 301.385, 118.750 301.662 M 125.768 301.725 C 127.565 301.947, 130.265 301.943, 131.768 301.715 C 133.271 301.486, 131.800 301.304, 128.500 301.310 C 125.200 301.315, 123.971 301.502, 125.768 301.725 M 137.750 301.723 C 139.537 301.945, 142.463 301.945, 144.250 301.723 C 146.037 301.502, 144.575 301.320, 141 301.320 C 137.425 301.320, 135.963 301.502, 137.750 301.723 M 152.280 301.736 C 154.909 301.943, 158.959 301.940, 161.280 301.731 C 163.601 301.521, 161.450 301.352, 156.500 301.355 C 151.550 301.358, 149.651 301.530, 152.280 301.736 M 171.784 301.738 C 174.689 301.941, 179.189 301.939, 181.784 301.734 C 184.378 301.528, 182 301.363, 176.500 301.365 C 171 301.368, 168.878 301.536, 171.784 301.738 M 188.813 301.683 C 189.534 301.972, 190.397 301.936, 190.729 301.604 C 191.061 301.272, 190.471 301.036, 189.417 301.079 C 188.252 301.127, 188.015 301.364, 188.813 301.683 M 195.750 301.732 C 198.088 301.943, 201.912 301.943, 204.250 301.732 C 206.588 301.522, 204.675 301.349, 200 301.349 C 195.325 301.349, 193.412 301.522, 195.750 301.732 M 817 336.010 L 817 354.021 861.250 353.760 L 905.500 353.500 905.773 335.750 L 906.046 318 861.523 318 L 817 318 817 336.010 M 571.870 322.030 C 564.811 323.118, 555.298 326.421, 552.857 328.630 C 550.613 330.660, 550.443 334.292, 552.511 336.009 C 553.747 337.035, 555.069 336.800, 559.761 334.723 C 567.161 331.448, 575.444 329.800, 582.715 330.155 C 589.394 330.482, 591 329.786, 591 326.563 C 591 325.288, 590.438 323.783, 589.750 323.219 C 587.881 321.685, 578.257 321.045, 571.870 322.030 M 130.271 331.777 C 117.343 332.028, 115.946 332.232, 114.998 334.004 C 114.190 335.514, 114.354 336.354, 115.727 337.727 C 117.375 339.375, 119.895 339.465, 151.500 339 L 185.500 338.500 185.500 335.500 L 185.500 332.500 165 332 C 153.725 331.725, 138.097 331.624, 130.271 331.777 M 572.522 344.250 C 568.866 347.426, 568.190 352.700, 570.982 356.250 C 575.405 361.873, 584 358.077, 584 350.500 C 584 348.021, 583.240 346.149, 581.545 344.455 C 578.494 341.403, 575.867 341.344, 572.522 344.250 M 117.239 357.703 C 116.545 357.962, 115.496 359.073, 114.909 360.170 C 114.076 361.726, 114.223 362.589, 115.575 364.083 C 117.218 365.899, 119.059 366, 150.455 366 C 184.717 366, 186 365.853, 186 361.922 C 186 357.738, 184.201 357.506, 150.596 357.365 C 132.943 357.291, 117.932 357.443, 117.239 357.703 M 115 386 C 114.240 387.421, 114.240 388.579, 115 390 C 116.017 391.900, 117.094 392, 136.464 392 C 153.670 392, 157.103 391.754, 158.429 390.429 C 160.288 388.569, 160.304 388.436, 158.965 385.934 C 157.992 384.116, 156.669 384, 137 384 C 117.094 384, 116.018 384.098, 115 386 M 91.079 400.583 C 91.127 401.748, 91.364 401.985, 91.683 401.188 C 91.972 400.466, 91.936 399.603, 91.604 399.271 C 91.272 398.939, 91.036 399.529, 91.079 400.583 M 761 448.500 L 761 466 791 466 L 821 466 821 448.500 L 821 431 791 431 L 761 431 761 448.500 M 901 448.500 L 901 466 931 466 L 961 466 961 448.500 L 961 431 931 431 L 901 431 901 448.500 M 153.431 486.712 C 152.247 487.896, 152 493.878, 152 521.371 C 152 545.883, 152.315 554.915, 153.200 555.800 C 154.084 556.684, 162.893 557, 186.618 557 C 204.338 557, 219.548 556.727, 220.418 556.393 C 224.279 554.912, 221.162 536.437, 214.786 523 C 209.345 511.535, 196.280 498.284, 185 492.787 C 172.931 486.907, 156.414 483.728, 153.431 486.712 M 210.252 561.500 C 210.263 563.700, 210.468 564.482, 210.707 563.238 C 210.946 561.994, 210.937 560.194, 210.687 559.238 C 210.437 558.282, 210.241 559.300, 210.252 561.500 M 209.195 568.500 C 209.215 570.150, 209.439 570.704, 209.693 569.731 C 209.947 568.758, 209.930 567.408, 209.656 566.731 C 209.382 566.054, 209.175 566.850, 209.195 568.500 M 204.315 583.068 C 202.580 586.881, 201.373 590, 201.633 590 C 202.306 590, 208.313 576.980, 207.852 576.519 C 207.642 576.309, 206.051 579.256, 204.315 583.068 M 196.405 596.250 L 194.500 598.500 196.750 596.595 C 198.864 594.805, 199.455 594, 198.655 594 C 198.465 594, 197.453 595.013, 196.405 596.250 M 138.558 663.695 C 139.641 692.166, 145.653 710.555, 160.368 730.411 C 189.697 769.987, 241.380 792.392, 316.500 798.097 C 330.614 799.168, 355.802 798.784, 364.250 797.367 C 367.837 796.766, 368 796.568, 368 792.827 L 368 788.917 360.250 789.708 C 347.819 790.978, 316.681 790.403, 301.478 788.622 C 269.765 784.907, 239.715 777.184, 219.188 767.473 C 198.803 757.830, 178.935 741.945, 166.731 725.533 C 153.404 707.611, 147.646 690.184, 146.566 664.500 L 146.061 652.500 142.085 652.195 L 138.109 651.890 138.558 663.695 M 566.804 727.041 C 557.520 731.944, 554.282 743.235, 559.441 752.714 L 562.109 757.616 544.804 783.730 L 527.500 809.844 521.500 810.277 C 518.200 810.514, 514.562 811.032, 513.417 811.427 C 511.733 812.008, 508.355 809.722, 495.805 799.510 L 480.278 786.873 481.716 782.697 C 488.020 764.401, 464.634 750.131, 450.882 763.882 C 444.685 770.080, 443.656 777.980, 447.951 786.404 L 449.885 790.197 436.401 810.848 C 428.985 822.207, 422.374 831.561, 421.709 831.635 C 421.044 831.709, 419.453 831.821, 418.173 831.885 C 416.893 831.948, 414.531 833.315, 412.923 834.923 C 410.530 837.316, 410 838.690, 410 842.500 C 410 848.970, 413.916 853, 420.201 853 C 425.466 853, 428.723 850.908, 430.655 846.284 C 431.777 843.597, 431.856 842.094, 431.009 839.529 C 429.951 836.320, 430.297 835.656, 443.432 815.658 L 456.944 795.088 461.737 795.655 C 465.008 796.043, 467.760 795.709, 470.399 794.607 L 474.267 792.990 481.287 798.745 C 485.149 801.910, 492.185 807.650, 496.923 811.500 L 505.539 818.500 504.326 822 C 500.345 833.487, 507.332 844.987, 519.290 846.626 C 528.481 847.886, 537.617 841.849, 540.019 832.929 C 541.347 827.999, 540.614 823.909, 537.404 818.325 L 535.004 814.150 552.179 788.075 L 569.355 762 575.227 762 C 578.457 762, 582.314 761.365, 583.800 760.589 C 586.897 758.971, 591.221 754.540, 592.914 751.247 C 594.440 748.281, 594.535 741.150, 593.105 736.819 C 591.777 732.795, 586.733 727.587, 582.685 726.061 C 578.322 724.416, 570.907 724.874, 566.804 727.041 M 570.763 734.565 C 567.949 736.092, 565 740.665, 565 743.500 C 565 746.492, 568.024 750.961, 571.138 752.572 C 582.509 758.452, 591.713 741.673, 580.775 735.004 C 576.911 732.648, 574.491 732.542, 570.763 734.565 M 456.923 769.923 C 450.340 776.506, 454.895 787, 464.334 787 C 468.118 787, 469.228 786.517, 471.411 783.923 C 477.254 776.979, 472.884 767, 464 767 C 460.742 767, 459.216 767.631, 456.923 769.923 M 516.775 819.559 C 513.299 821.445, 512 823.912, 512 828.630 C 512 837.371, 522.731 841.422, 529.077 835.077 C 533.915 830.239, 532.604 822.464, 526.460 819.548 C 522.450 817.645, 520.297 817.647, 516.775 819.559" stroke="none" fill="black" fill-rule="evenodd"/>
</svg>